<?xml version="1.0" encoding="UTF-8"?>
<svg width="32" height="42" viewBox="0 0 32 42" fill="none" xmlns="http://www.w3.org/2000/svg">
  <!-- Pin base with teardrop shape -->
  <path d="M16 0C9.373 0 4 5.373 4 12c0 8.4 12 24 12 24s12-15.6 12-24c0-6.627-5.373-12-12-12z" fill="#97a88c"/>
  
  <!-- Mountain peaks and trees symbol -->
  <g transform="translate(8, 6)">
    <!-- Mountains -->
    <path d="M2 10L6 4L8 7L10 4L14 10H2Z" fill="#f5f2e8"/>
    <!-- Tree -->
    <path d="M6 8L8 5L10 8H6Z" fill="#f5f2e8"/>
  </g>
  
  <!-- Outline -->
  <path d="M16 0C9.373 0 4 5.373 4 12c0 8.4 12 24 12 24s12-15.6 12-24c0-6.627-5.373-12-12-12z" 
    stroke="#f5f2e8" stroke-width="1" fill="none"/>
</svg> 